<svg id="Layer_1" enable-background="new 0 0 512 512" height="512" viewBox="0 0 512 512" width="512" xmlns="http://www.w3.org/2000/svg"><g><g><path d="m497 318.295v109.99h-196.19v-265.72h124.91l3.09 22.31 15.87 114.55h33.45c10.41 0 18.87 8.47 18.87 18.87z" fill="#eef0f5"/><path d="m428.81 184.875 15.87 114.55h-24l-18.96-136.86h24z" fill="#dae1ea"/><path d="m497 318.295v109.99h-24v-109.99c0-10.4-8.46-18.87-18.87-18.87h24c10.41 0 18.87 8.47 18.87 18.87z" fill="#dae1ea"/><path d="m433.145 155.065h-124.836c-4.142 0-7.5 3.358-7.5 7.5s3.358 7.5 7.5 7.5h124.836c4.142 0 7.5-3.358 7.5-7.5s-3.358-7.5-7.5-7.5z" fill="#90abbd"/><path d="m315.81 107.475v320.81h-315.81v-320.81c0-4.14 3.36-7.5 7.5-7.5h300.81c4.14 0 7.5 3.36 7.5 7.5z" fill="#f9d11f"/><path d="m315.81 107.475v320.81h-315.81v-89.57h274.98c9.24 0 16.73-7.49 16.73-16.73v-222.01h16.6c4.14 0 7.5 3.36 7.5 7.5z" fill="#ffa402"/><path d="m0 360.895h315.81v67.39h-315.81z" fill="#eef0f5"/><path d="m291.71 360.895h24.1v67.39h-24.1z" fill="#dae1ea"/><path d="m444.68 299.425h-86.42c-2.94 0-5.33-2.38-5.33-5.33v-103.88c0-2.95 2.39-5.34 5.33-5.34h70.55z" fill="#99e7fa"/><path d="m428.81 184.875 15.87 114.55h-24l-15.87-114.55z" fill="#4dd4f7"/><path d="m497 332.215v30h-37.5c-1.47 0-2.77-.94-3.24-2.33l-7.72-23.19c-.74-2.2.9-4.48 3.23-4.48z" fill="#f9d11f"/><path d="m473 332.215h24v30h-24z" fill="#ffa402"/><path d="m504.5 420.784h-497c-4.142 0-7.5 3.358-7.5 7.5s3.358 7.5 7.5 7.5h497c4.142 0 7.5-3.358 7.5-7.5s-3.358-7.5-7.5-7.5z" fill="#90abbd"/><g><g><circle cx="410.78" cy="427.795" fill="#56788b" r="41.68"/><path d="m452.46 427.795c0 22.98-18.7 41.68-41.68 41.68 11.03 0 20-18.7 20-41.68s-8.97-41.68-20-41.68c22.98 0 41.68 18.7 41.68 41.68z" fill="#003343"/></g><g><circle cx="87.896" cy="427.795" fill="#56788b" r="41.68"/><path d="m129.576 427.795c0 22.98-18.7 41.68-41.68 41.68 11.03 0 20-18.7 20-41.68s-8.97-41.68-20-41.68c22.98 0 41.68 18.7 41.68 41.68z" fill="#003343"/></g></g><path d="m377.772 324.714h-17.34c-4.142 0-7.5 3.358-7.5 7.5s3.358 7.5 7.5 7.5h17.34c4.142 0 7.5-3.358 7.5-7.5s-3.358-7.5-7.5-7.5z" fill="#b9cfdf"/></g><path d="m242.82 127.415c0 28.62-7.15 74.53-41.21 130.73-20.32 33.52-40.34 54.53-41.18 55.41-.66.69-1.57 1.08-2.53 1.08-.95 0-1.86-.39-2.52-1.08-.84-.88-20.86-21.89-41.18-55.41-18.8-31.02-41.21-78.88-41.21-130.73 0-46.81 38.09-84.89 84.91-84.89 46.83 0 84.92 38.08 84.92 84.89z" fill="#ff4656"/><path d="m242.82 127.415c0 28.62-7.15 74.53-41.21 130.73-20.32 33.52-40.34 54.53-41.18 55.41-.66.69-1.57 1.08-2.53 1.08.68 0 1.32-.39 1.79-1.08.59-.88 14.74-21.89 29.09-55.41 24.07-56.2 29.12-102.11 29.12-130.73 0-46.81-26.91-84.89-60-84.89 46.83 0 84.92 38.08 84.92 84.89z" fill="#d93c49"/><path d="m194.52 128.575c0 20.02-16.15 36.33-36.1 36.6-.18.01-.35.01-.52.01-20.18 0-36.61-16.42-36.61-36.61s16.43-36.61 36.61-36.61c.17 0 .34 0 .52.01 19.95.27 36.1 16.58 36.1 36.6z" fill="#fff"/><path d="m194.52 128.575c0 20.02-16.15 36.33-36.1 36.6 10.79-.5 19.49-16.73 19.49-36.6s-8.7-36.1-19.49-36.6c19.95.27 36.1 16.58 36.1 36.6z" fill="#eef0f5"/></g></svg>