<?xml version="1.0" standalone="no"?>
<!DOCTYPE svg PUBLIC "-//W3C//DTD SVG 20010904//EN"
 "http://www.w3.org/TR/2001/REC-SVG-20010904/DTD/svg10.dtd">
<svg version="1.0" xmlns="http://www.w3.org/2000/svg"
 width="1400.000000pt" height="1700.000000pt" viewBox="0 0 1400.000000 1700.000000"
 preserveAspectRatio="xMidYMid meet">
<metadata>
Created by potrace 1.16, written by Peter Selinger 2001-2019
</metadata>
<g transform="translate(0.000000,1700.000000) scale(0.100000,-0.100000)"
fill="#000000" stroke="none">
<path d="M1 8498 l-1 -8498 4838 0 c3587 -1 5382 3 6947 15 1161 9 2125 19
2143 21 l32 5 0 60 c0 84 -36 420 -66 623 -189 1265 -615 2507 -1220 3557
-756 1312 -1805 2353 -3086 3063 -463 256 -975 478 -1493 646 -154 51 -410
134 -570 186 -2439 795 -4523 2655 -6098 5444 -545 965 -1082 2214 -1362 3165
-26 88 -50 171 -55 185 -5 14 -9 -3799 -9 -8472z"/>
</g>
</svg>
